<?xml version="1.0" encoding="UTF-8"?>
<svg width="237px" height="36px" viewBox="0 0 237 36" version="1.1" xmlns="http://www.w3.org/2000/svg" xmlns:xlink="http://www.w3.org/1999/xlink">
    <!-- Generator: sketchtool 52.5 (67469) - http://www.bohemiancoding.com/sketch -->
    <title>5128DE49-960F-463C-8A24-933F851C0DE4</title>
    <desc>Created with sketchtool.</desc>
    <g id="Style-guide" stroke="none" stroke-width="1" fill="none" fill-rule="evenodd">
        <g id="PAGE-DE-GARDE" transform="translate(-48.000000, -49.000000)">
            <g id="Identité-vectorisé" transform="translate(48.000000, 49.000000)">
                <g id="Group" transform="translate(53.000000, 4.000000)" fill="#112F41">
                    <path d="M10.952939,4.52109589 C8.81263142,4.52109589 7.12756389,5.27799087 5.89773637,6.78502283 C4.67470348,8.29205479 4.05639241,10.380274 4.05639241,13.0361644 C4.05639241,15.8204566 4.64752497,17.9221918 5.82299547,19.3481279 C7.0052606,20.7740639 8.71071201,21.490411 10.9461443,21.490411 C11.9109814,21.490411 12.84864,21.3957991 13.7523254,21.2065753 C14.6560108,21.0173516 15.600464,20.7673059 16.5720956,20.4699543 L16.5720956,23.64621 C14.7851087,24.3220091 12.7535152,24.6531507 10.4909043,24.6531507 C7.1547424,24.6531507 4.59316796,23.64621 2.80618102,21.6390868 C1.01919407,19.6252055 0.122303289,16.7530594 0.122303289,13.0091324 C0.122303289,10.6505936 0.557159427,8.58940639 1.4268717,6.81881279 C2.29658398,5.04821918 3.54679538,3.696621 5.19109515,2.75726027 C6.83539492,1.81789954 8.7582744,1.34484018 10.9733229,1.34484018 C13.30388,1.34484018 15.4509822,1.83141553 17.4282187,2.80456621 L16.0896771,5.89296804 C15.3218842,5.52803653 14.506529,5.21041096 13.650406,4.94009132 C12.8010776,4.65625571 11.8973922,4.52109589 10.952939,4.52109589 Z" id="Path"></path>
                    <path d="M36.2765144,24.3422831 L32.5938265,24.3422831 L32.5938265,13.7930594 C32.5938265,12.4684932 32.328836,11.4818265 31.7920605,10.8330594 C31.2552849,10.1842922 30.4059565,9.85315068 29.2440753,9.85315068 C27.7084895,9.85315068 26.5737868,10.3126941 25.8535563,11.2250228 C25.1333259,12.1373516 24.766416,13.6714155 24.766416,15.8204566 L24.766416,24.3355251 L21.1041119,24.3355251 L21.1041119,0.202739726 L24.766416,0.202739726 L24.766416,6.32547945 C24.766416,7.30538813 24.7052643,8.3596347 24.5761664,9.4747032 L24.8071837,9.4747032 C25.3031915,8.65022831 26.0030381,8.00821918 26.8863397,7.5486758 C27.7764358,7.09589041 28.8092191,6.86611872 29.9982789,6.86611872 C34.1769746,6.86611872 36.2697198,8.96109589 36.2697198,13.1442922 L36.2697198,24.3422831 L36.2765144,24.3422831 Z" id="Path"></path>
                    <path d="M52.1623527,24.3422831 L51.4285329,21.9567123 L51.3062297,21.9567123 C50.4772851,22.9974429 49.6347514,23.71379 48.7922176,24.0922374 C47.9496838,24.4706849 46.8693381,24.6599087 45.5511805,24.6599087 C43.8593183,24.6599087 42.534366,24.2071233 41.5831182,23.2947945 C40.6318704,22.3824658 40.1562465,21.0984475 40.1562465,19.4359817 C40.1562465,17.6653881 40.8153253,16.3340639 42.1402776,15.4352511 C43.4584353,14.5364384 45.4696449,14.043105 48.1739065,13.9620091 L51.1499532,13.8673973 L51.1499532,12.9550685 C51.1499532,11.860274 50.8917574,11.0425571 50.3753657,10.4951598 C49.8589741,9.95452055 49.0640027,9.67744292 47.983657,9.67744292 C47.1003554,9.67744292 46.2510271,9.80584475 45.4424664,10.0626484 C44.6339058,10.3194521 43.8525237,10.6235616 43.1051147,10.9749772 L41.9228496,8.36639269 C42.8605081,7.87981735 43.8797022,7.50812785 44.994021,7.25808219 C46.1083399,7.00127854 47.1547125,6.8796347 48.146728,6.8796347 C50.3413926,6.8796347 51.992487,7.35269406 53.1136005,8.30557078 C54.2279193,9.25844749 54.7918734,10.7519635 54.7918734,12.7861187 L54.7918734,24.3422831 L52.1623527,24.3422831 Z M46.7062671,21.8621005 C48.038014,21.8621005 49.1047705,21.490411 49.9133311,20.75379 C50.7218917,20.0171689 51.1227747,18.9764384 51.1227747,17.6451142 L51.1227747,16.1583562 L48.9077263,16.252968 C47.181891,16.31379 45.9248849,16.6043836 45.1435028,17.1112329 C44.3553261,17.6248402 43.9680323,18.4087671 43.9680323,19.4630137 C43.9680323,20.2266667 44.1990497,20.8213699 44.6542897,21.2403653 C45.1027351,21.6526027 45.7889924,21.8621005 46.7062671,21.8621005 Z" id="Shape" fill-rule="nonzero"></path>
                    <path d="M74.4283459,24.3422831 L70.7456579,24.3422831 L70.7456579,13.7660274 C70.7456579,12.4549772 70.4942567,11.4750685 69.998249,10.8263014 C69.5022412,10.1775342 68.7208591,9.85990868 67.6608972,9.85990868 C66.2476148,9.85990868 65.2080368,10.3194521 64.548958,11.2317808 C63.8898791,12.1441096 63.5569424,13.6714155 63.5569424,15.8001826 L63.5569424,24.3490411 L59.8946384,24.3490411 L59.8946384,7.19726027 L62.761971,7.19726027 L63.2783627,9.44767123 L63.4686123,9.44767123 C63.9442362,8.62995434 64.6372881,8.00146119 65.5477682,7.55543379 C66.4582482,7.10940639 67.4570584,6.88639269 68.5509934,6.88639269 C71.200898,6.88639269 72.9607064,7.78520548 73.8236241,9.58283105 L74.0750253,9.58283105 C74.5846223,8.73808219 75.2980581,8.07579909 76.2289221,7.59598174 C77.1529914,7.12292237 78.2129532,6.8796347 79.4088076,6.8796347 C81.4675796,6.8796347 82.9691922,7.39324201 83.9068508,8.42721461 C84.8445093,9.46118721 85.3201332,11.0357991 85.3201332,13.1578082 L85.3201332,24.3422831 L81.6578292,24.3422831 L81.6578292,13.7660274 C81.6578292,12.4549772 81.406428,11.4750685 80.9036255,10.8263014 C80.4008231,10.1775342 79.619441,9.85990868 78.5594792,9.85990868 C77.1326075,9.85990868 76.0930295,10.2991781 75.4339507,11.1844749 C74.7748719,12.0697717 74.4419351,13.4281279 74.4419351,15.2527854 L74.4419351,24.3422831 L74.4283459,24.3422831 Z" id="Path"></path>
                    <path d="M99.174378,24.6531507 C96.9933027,24.6531507 95.2946459,23.8692237 94.0919969,22.3081279 L93.8745688,22.3081279 C94.017256,23.7543379 94.0919969,24.6328767 94.0919969,24.9437443 L94.0919969,31.9720548 L90.4296928,31.9720548 L90.4296928,7.19050228 L93.3921503,7.19050228 C93.4736858,7.50812785 93.6503461,8.27853881 93.9085419,9.48821918 L94.0987915,9.48821918 C95.2402888,7.75141553 96.9593295,6.8796347 99.2423242,6.8796347 C101.396221,6.8796347 103.067699,7.65680365 104.270348,9.20438356 C105.472997,10.7519635 106.070925,12.9347945 106.070925,15.7326027 C106.070925,18.5371689 105.459408,20.72 104.236375,22.2946119 C103.013342,23.8624658 101.328275,24.6531507 99.174378,24.6531507 Z M98.2910764,9.85315068 C96.8370262,9.85315068 95.7702698,10.2789041 95.1043963,11.123653 C94.4317282,11.9684018 94.0987915,13.326758 94.0987915,15.1852055 L94.0987915,15.7258447 C94.0987915,17.8140639 94.4317282,19.3278539 95.0976017,20.2604566 C95.7634751,21.1930594 96.8506155,21.6661187 98.3590227,21.6661187 C99.629618,21.6661187 100.60125,21.1525114 101.287507,20.1185388 C101.973764,19.0845662 102.313496,17.6113242 102.313496,15.6988128 C102.313496,13.7727854 101.973764,12.3198174 101.294302,11.3331507 C100.608044,10.346484 99.6092341,9.85315068 98.2910764,9.85315068 Z" id="Shape" fill-rule="nonzero"></path>
                    <polygon id="Path" points="121.829012 24.3422831 118.166708 24.3422831 118.166708 0.209497717 121.829012 0.209497717"></polygon>
                    <path d="M126.850241,2.64237443 C126.850241,1.99360731 127.026902,1.48675799 127.387017,1.13534247 C127.747132,0.783926941 128.256729,0.608219178 128.922603,0.608219178 C129.568092,0.608219178 130.070895,0.783926941 130.424215,1.13534247 C130.78433,1.48675799 130.960991,1.98684932 130.960991,2.64237443 C130.960991,3.26410959 130.78433,3.75068493 130.424215,4.10885845 C130.0641,4.46703196 129.561298,4.64273973 128.922603,4.64273973 C128.256729,4.64273973 127.747132,4.46703196 127.387017,4.10885845 C127.033696,3.75068493 126.850241,3.26410959 126.850241,2.64237443 Z M130.736768,24.3422831 L127.074464,24.3422831 L127.074464,7.19050228 L130.736768,7.19050228 L130.736768,24.3422831 Z" id="Shape" fill-rule="nonzero"></path>
                    <path d="M144.788057,6.8796347 C146.941954,6.8796347 148.613432,7.65680365 149.816081,9.20438356 C151.01873,10.7519635 151.616657,12.9347945 151.616657,15.7326027 C151.616657,18.5439269 151.011935,20.733516 149.795697,22.3013699 C148.579459,23.8692237 146.887597,24.6531507 144.726905,24.6531507 C142.54583,24.6531507 140.847173,23.8692237 139.644524,22.3081279 L139.393123,22.3081279 L138.720455,24.3422831 L135.975426,24.3422831 L135.975426,0.209497717 L139.63773,0.209497717 L139.63773,5.94703196 C139.63773,6.37278539 139.617346,7.00127854 139.576578,7.83926941 C139.53581,8.67726027 139.501837,9.21114155 139.481453,9.43415525 L139.63773,9.43415525 C140.806406,7.73114155 142.518652,6.8796347 144.788057,6.8796347 Z M143.836809,9.85315068 C142.362375,9.85315068 141.295619,10.2856621 140.650129,11.1506849 C139.997845,12.0157078 139.664908,13.4619178 139.644524,15.4825571 L139.644524,15.7326027 C139.644524,17.8208219 139.977461,19.3346119 140.643334,20.2672146 C141.309208,21.1998174 142.396348,21.6728767 143.904755,21.6728767 C145.202529,21.6728767 146.18775,21.1592694 146.860418,20.1388128 C147.533086,19.1183562 147.866023,17.6383562 147.866023,15.7055708 C147.859228,11.80621 146.513892,9.85315068 143.836809,9.85315068 Z" id="Shape" fill-rule="nonzero"></path>
                    <path d="M164.621574,6.8796347 C165.362188,6.8796347 165.96691,6.93369863 166.442534,7.03506849 L166.082419,10.4343379 C165.566027,10.3126941 165.022457,10.2451142 164.458503,10.2451142 C162.990863,10.2451142 161.801803,10.7181735 160.898118,11.6710502 C159.987638,12.6239269 159.532398,13.8606393 159.532398,15.3811872 L159.532398,24.3422831 L155.870094,24.3422831 L155.870094,7.19050228 L158.737427,7.19050228 L159.219845,10.2113242 L159.410095,10.2113242 C159.980843,9.19086758 160.728252,8.37990868 161.645527,7.77844749 C162.569596,7.1769863 163.561612,6.8796347 164.621574,6.8796347 Z" id="Path"></path>
                    <path d="M177.17125,24.6531507 C174.487372,24.6531507 172.394627,23.8759817 170.879425,22.3216438 C169.364223,20.7673059 168.61002,18.6250228 168.61002,15.8947945 C168.61002,13.0902283 169.309866,10.8938813 170.716354,9.28547945 C172.116047,7.68383562 174.045722,6.8796347 176.498582,6.8796347 C178.774782,6.8796347 180.575358,7.56894977 181.893516,8.94082192 C183.211674,10.3194521 183.870752,12.2049315 183.870752,14.6175342 L183.870752,16.5908676 L172.381038,16.5908676 C172.435395,18.2533333 172.88384,19.5373516 173.739963,20.4294064 C174.589292,21.3214612 175.791941,21.7742466 177.341116,21.7742466 C178.36031,21.7742466 179.311558,21.6796347 180.188065,21.490411 C181.064571,21.3011872 182.009025,20.9835616 183.021424,20.5375342 L183.021424,23.4975342 C182.124533,23.9232877 181.220848,24.2206393 180.310368,24.396347 C179.393093,24.5652968 178.346721,24.6531507 177.17125,24.6531507 Z M176.498582,9.63689498 C175.336701,9.63689498 174.399042,10.0018265 173.699196,10.7384475 C172.999349,11.4750685 172.578082,12.5428311 172.44219,13.9484932 L180.2696,13.9484932 C180.249216,12.5293151 179.90269,11.4615525 179.243611,10.7316895 C178.577738,10.0018265 177.667258,9.63689498 176.498582,9.63689498 Z" id="Shape" fill-rule="nonzero"></path>
                </g>
                <path d="M2.6906317,16.9999863 C4.56734731,17.0071099 5.26018498,14.243146 8.89926435,14.5280907 C11.3544658,14.7204284 15.188616,16.6722998 19.3254622,16.4942094 C23.469035,16.3161189 31.8032667,12.170173 29.6507613,8.92892667 C27.5049826,5.6805567 24.9959685,10.4747518 21.007107,10.2254252 C17.0182455,9.98322218 10.9643242,5.92275972 7.97099641,6.00111953 C4.97766865,6.07947933 0,8.18807036 0,13.4737952 C3.82361762e-14,16.2662536 1.91034851,16.9928626 2.6906317,16.9999863 Z" id="Path" fill="#F90030"></path>
                <path d="M19.0083206,2.37720693 C18.856478,-0.230929205 20.8166279,0.0896238401 22.1279958,0.0022002824 C23.4393636,-0.0852232753 28.4225616,2.46463049 32.2324304,1.93280385 C36.0353973,1.40097721 39.1619744,0.0240561718 41.2739669,0.242615066 C43.3859594,0.461173961 48.1482954,2.63947761 47.9964528,7.08350846 C47.8446102,11.5275393 45.1459531,13.8224077 41.6880831,13.9972548 C38.230213,14.1721019 28.6434236,5.93971691 26.8006066,5.01448426 C24.9439857,4.08925161 19.1256535,4.36609287 19.0083206,2.37720693 Z" id="Path" fill="#3340FF"></path>
                <path d="M14.9260548,18.6765464 C16.4968765,17.1527062 21.5607093,20.8028351 24.9503771,19.4349227 C28.3400448,18.0670103 31.7297125,12 34.9746993,12 C38.2196861,12 41.6093538,14.5798969 40.9066178,19.4349227 C40.2038818,24.2899485 38.509048,27.7770619 35.9667972,29.5985825 C33.4245464,31.4201031 33.286755,29.0599227 30.7445042,30.619201 C28.2022534,32.1784794 24.5301134,34 22.8421691,34 C21.1542248,34 16.8000175,31.554768 15.2360854,28.195232 C13.7961656,25.119201 13.5136933,20.0373711 14.9260548,18.6765464 Z" id="Path" fill="#FFC50B"></path>
            </g>
        </g>
    </g>
</svg>