<?xml version="1.0" encoding="UTF-8"?>
<svg width="123px" height="79px" viewBox="0 0 123 79" version="1.1" xmlns="http://www.w3.org/2000/svg" xmlns:xlink="http://www.w3.org/1999/xlink">
    <!-- Generator: sketchtool 52.5 (67469) - http://www.bohemiancoding.com/sketch -->
    <title>42B66BD5-0408-468F-9842-62DAF3C8504E</title>
    <desc>Created with sketchtool.</desc>
    <g id="Style-guide" stroke="none" stroke-width="1" fill="none" fill-rule="evenodd">
        <g id="LOGO" transform="translate(-1125.000000, -1006.000000)">
            <g id="Group-5" transform="translate(1125.000000, 1006.000000)">
                <path d="M6.99564242,37.9999688 C11.875103,38.0161588 13.6764809,31.7344226 23.1380873,32.3820243 C29.521611,32.8191554 39.4904015,37.2552268 50.2462017,36.8504758 C61.019491,36.4457248 82.6884934,27.0231205 77.0919795,19.6566515 C71.5129547,12.2739925 64.9895181,23.1698906 54.6184782,22.6032391 C44.2474383,22.0527777 28.5072429,12.8244539 20.7245907,13.0025444 C12.9419385,13.1806348 0,17.9728872 0,29.9858981 C9.94140581e-14,36.3323945 4.96690612,37.9837787 6.99564242,37.9999688 Z" id="Path" fill="#F90030"></path>
                <path d="M49.0212318,5.43361585 C48.6337714,-0.527838183 53.6355332,0.204854492 56.9817823,0.00502921691 C60.3280314,-0.194796058 73.0437779,5.63344112 82.7655121,4.41783737 C92.4696344,3.20223361 100.447797,0.0549855356 105.837019,0.554548723 C111.226241,1.05411191 123.378409,6.03309167 122.990948,16.1908765 C122.603488,26.3486613 115.71726,31.5940747 106.893729,31.9937253 C98.0701987,32.3933758 73.6073567,13.5764958 68.9049961,11.4616783 C64.1674119,9.34686081 49.3206331,9.97964085 49.0212318,5.43361585 Z" id="Path" fill="#3340FF"></path>
                <path d="M38.3665845,43.4774485 C42.3809065,39.9449098 55.3218127,48.4065722 63.9842969,45.2355026 C72.6467811,42.064433 81.3092653,28 89.6020093,28 C97.8947533,28 106.557238,33.9806701 104.761357,45.2355026 C102.965476,56.4903351 98.6342337,64.5740979 92.1373705,68.7967139 C85.6405074,73.0193299 85.2883739,67.5480026 78.7915108,71.1626933 C72.2946476,74.777384 62.9102897,79 58.5966543,79 C54.2830189,79 43.1556002,73.3315077 39.1588849,65.5434923 C35.4790898,58.4126933 34.7572161,46.6320876 38.3665845,43.4774485 Z" id="Path" fill="#FFC50B"></path>
            </g>
        </g>
    </g>
</svg>